<?xml version="1.0" encoding="UTF-8"?>
<svg width="36" height="36" viewBox="0 0 36 36" fill="none" xmlns="http://www.w3.org/2000/svg">
  <!-- Central praying hands -->
  <path d="M18 12C16 12 15 13 15 15V20C15 22 16 23 18 23C20 23 21 22 21 20V15C21 13 20 12 18 12Z" stroke="#6B46C1" stroke-width="2" stroke-linecap="round" stroke-linejoin="round"/>
  
  <!-- Community circle -->
  <circle cx="18" cy="18" r="12" stroke="#6B46C1" stroke-width="2" stroke-dasharray="4 4"/>
  
  <!-- Community members -->
  <circle cx="10" cy="18" r="3" stroke="#6B46C1" stroke-width="2"/>
  <circle cx="26" cy="18" r="3" stroke="#6B46C1" stroke-width="2"/>
  <circle cx="18" cy="10" r="3" stroke="#6B46C1" stroke-width="2"/>
  <circle cx="18" cy="26" r="3" stroke="#6B46C1" stroke-width="2"/>
  
  <!-- Connection lines -->
  <path d="M12.5 15.5L15.5 12.5" stroke="#6B46C1" stroke-width="1" stroke-linecap="round"/>
  <path d="M23.5 15.5L20.5 12.5" stroke="#6B46C1" stroke-width="1" stroke-linecap="round"/>
  <path d="M12.5 20.5L15.5 23.5" stroke="#6B46C1" stroke-width="1" stroke-linecap="round"/>
  <path d="M23.5 20.5L20.5 23.5" stroke="#6B46C1" stroke-width="1" stroke-linecap="round"/>
</svg> 