<?xml version="1.0" encoding="UTF-8"?>
<svg width="36" height="36" viewBox="0 0 36 36" fill="none" xmlns="http://www.w3.org/2000/svg">
  <!-- Two sets of praying hands -->
  <path d="M12 8C9.5 8 8 9.5 8 12V18C8 20.5 9.5 22 12 22C14.5 22 16 20.5 16 18V12C16 9.5 14.5 8 12 8Z" stroke="#6B46C1" stroke-width="2" stroke-linecap="round" stroke-linejoin="round"/>
  <path d="M24 8C21.5 8 20 9.5 20 12V18C20 20.5 21.5 22 24 22C26.5 22 28 20.5 28 18V12C28 9.5 26.5 8 24 8Z" stroke="#6B46C1" stroke-width="2" stroke-linecap="round" stroke-linejoin="round"/>
  
  <!-- Heart symbol -->
  <path d="M18 26C18 26 22 23 24 23C26 23 28 25 28 27C28 29 26 31 24 31C22 31 18 28 18 28M18 26C18 26 14 23 12 23C10 23 8 25 8 27C8 29 10 31 12 31C14 31 18 28 18 28" stroke="#6B46C1" stroke-width="2" stroke-linecap="round" stroke-linejoin="round"/>
  
  <!-- Connection lines -->
  <path d="M18 14L18 28" stroke="#6B46C1" stroke-width="2" stroke-linecap="round" stroke-dasharray="2 2"/>
</svg> 