<?xml version="1.0" encoding="UTF-8"?>
<svg width="36" height="36" viewBox="0 0 36 36" fill="none" xmlns="http://www.w3.org/2000/svg">
  <!-- Praying hands base -->
  <path d="M18 4C14.5 4 12 6.5 12 10V20C12 23.5 14.5 26 18 26C21.5 26 24 23.5 24 20V10C24 6.5 21.5 4 18 4Z" stroke="#6B46C1" stroke-width="2" stroke-linecap="round" stroke-linejoin="round"/>
  
  <!-- Left hand detail -->
  <path d="M15 12C15 12 16 13 18 13C20 13 21 12 21 12" stroke="#6B46C1" stroke-width="2" stroke-linecap="round"/>
  
  <!-- Plus symbol for create -->
  <circle cx="28" cy="8" r="6" fill="#6B46C1" stroke="white" stroke-width="1.5"/>
  <path d="M28 5V11M25 8H31" stroke="white" stroke-width="1.5" stroke-linecap="round"/>
  
  <!-- Prayer lines -->
  <path d="M8 14C7 15 6 17 6 19" stroke="#6B46C1" stroke-width="2" stroke-linecap="round"/>
  <path d="M28 14C29 15 30 17 30 19" stroke="#6B46C1" stroke-width="2" stroke-linecap="round"/>
  
  <!-- Base platform -->
  <path d="M10 30H26" stroke="#6B46C1" stroke-width="2" stroke-linecap="round"/>
</svg> 