<?xml version="1.0" encoding="UTF-8"?>
<svg id="Layer_1" data-name="Layer 1" xmlns="http://www.w3.org/2000/svg" xmlns:xlink="http://www.w3.org/1999/xlink" viewBox="0 0 960 960">
  <defs>
    <style>
      .cls-1 {
        fill: url(#linear-gradient);
      }

      .cls-1, .cls-2, .cls-3, .cls-4 {
        stroke-width: 0px;
      }

      .cls-2 {
        fill: url(#linear-gradient-2);
      }

      .cls-3 {
        fill: #1f1f1f;
      }

      .cls-4 {
        fill: #3ecf8e;
      }
    </style>
    <linearGradient id="linear-gradient" x1="16.06" y1="940.38" x2="19.4" y2="940.38" gradientTransform="translate(-6969.86 16652.64) rotate(22.75) scale(18.77 -18.77)" gradientUnits="userSpaceOnUse">
      <stop offset="0" stop-color="#249361"/>
      <stop offset="1" stop-color="#3ecf8e"/>
    </linearGradient>
    <linearGradient id="linear-gradient-2" x1="26.26" y1="955.76" x2="29.6" y2="955.76" gradientTransform="translate(-14272.69 7585.72) rotate(62.02) scale(16.83 -16.83)" gradientUnits="userSpaceOnUse">
      <stop offset="0" stop-color="#000" stop-opacity=".2"/>
      <stop offset="1" stop-color="#000" stop-opacity="0"/>
    </linearGradient>
  </defs>
  <path class="cls-3" d="M456.11,542.4v-34.29c3.45,4.76,10.65,8.65,20.44,8.65,20,0,33.38-15.85,33.38-37.32s-11.94-36.88-32.66-36.88c-10.65,0-18.56,4.76-21.73,10.23v-8.65h-18.56v98.26h19.14ZM280.84,495.29c.86,8.07,8.2,21.9,29.5,21.9,18.56,0,27.49-11.81,27.49-23.34,0-10.37-7.05-18.87-21.01-21.76l-10.07-2.16c-3.89-.72-6.47-2.88-6.47-6.34,0-4.03,4.03-7.06,9.07-7.06,8.06,0,11.08,5.33,11.66,9.51l15.97-3.6c-.86-7.64-7.63-20.46-27.77-20.46-15.26,0-26.48,10.52-26.48,23.2,0,9.94,6.19,18.15,19.86,21.18l9.35,2.16c5.47,1.15,7.63,3.75,7.63,6.92,0,3.75-3.02,7.06-9.35,7.06-8.35,0-12.52-5.19-12.95-10.81,0,0-16.4,3.6-16.4,3.6ZM762.31,495.29c.86,8.07,8.2,21.9,29.5,21.9,18.56,0,27.49-11.81,27.49-23.34,0-10.37-7.05-18.87-21.01-21.76l-10.08-2.16c-3.89-.72-6.47-2.88-6.47-6.34,0-4.03,4.03-7.06,9.07-7.06,8.06,0,11.08,5.33,11.66,9.51l15.97-3.6c-.86-7.64-7.63-20.46-27.77-20.46-15.25,0-26.48,10.52-26.48,23.2,0,9.94,6.18,18.15,19.86,21.18l9.35,2.16c5.47,1.15,7.63,3.75,7.63,6.92,0,3.75-3.02,7.06-9.35,7.06-8.35,0-12.52-5.19-12.95-10.81,0,0-16.41,3.6-16.41,3.6ZM881.9,489.96c-2.3,6.34-7.2,10.81-16.12,10.81-9.5,0-17.41-6.77-17.84-16.14h50.65c0-.29.29-3.17.29-5.91,0-22.77-13.09-36.74-34.97-36.74-18.13,0-34.83,14.7-34.83,37.32,0,23.92,17.13,37.89,36.55,37.89,17.41,0,28.64-10.23,32.24-22.47,0,0-15.97-4.76-15.97-4.76ZM520.77,495.72c0,11.1,9.21,21.32,24.32,21.32,10.5,0,17.27-4.9,20.87-10.52,0,2.74.29,6.63.72,8.5h17.56c-.43-2.45-.86-7.49-.86-11.24v-34.87c0-14.26-8.35-26.94-30.79-26.94-19,0-29.22,12.25-30.37,23.34l16.98,3.6c.58-6.19,5.18-11.52,13.52-11.52s11.95,4.18,11.95,9.22c0,2.45-1.29,4.46-5.32,5.04l-17.41,2.59c-11.8,1.73-21.16,8.79-21.16,21.47h0ZM686.47,495.72c0,11.1,9.21,21.32,24.32,21.32,10.5,0,17.27-4.9,20.87-10.52,0,2.74.29,6.63.72,8.5h17.56c-.43-2.45-.86-7.49-.86-11.24v-34.87c0-14.26-8.35-26.94-30.8-26.94-19,0-29.21,12.25-30.36,23.34l16.98,3.6c.58-6.19,5.18-11.52,13.53-11.52s11.95,4.18,11.95,9.22c0,2.45-1.29,4.46-5.32,5.04l-17.41,2.59c-11.8,1.73-21.15,8.79-21.15,21.47h0ZM398.99,515.03h18.28c-.47-4.26-.71-8.54-.72-12.82v-58.06h-19.14v41.21c0,8.21-4.89,13.98-13.38,13.98-8.92,0-12.95-6.34-12.95-14.26v-40.92h-19.14v44.81c0,15.41,9.79,27.95,26.91,27.95,7.48,0,15.69-2.88,19.57-9.51,0,2.88.29,6.19.58,7.64ZM621.23,515.03v-8.65c3.74,6.05,11.22,10.37,21.01,10.37,20.15,0,33.39-15.99,33.39-37.46s-11.95-37.03-32.67-37.03c-10.5,0-18.28,4.61-21.44,9.66v-41.21h-18.85v104.31s18.56,0,18.56,0ZM549.12,502.78c-6.19,0-9.21-4.03-9.21-8.21,0-5.47,3.88-8.21,8.78-8.93l15.97-2.45v3.17c0,12.53-7.48,16.42-15.54,16.42ZM714.82,502.78c-6.19,0-9.21-4.03-9.21-8.21,0-5.47,3.89-8.21,8.78-8.93l15.97-2.45v3.17c0,12.53-7.48,16.42-15.54,16.42ZM491.08,479.58c0,12.68-7.77,20.03-17.55,20.03s-17.7-7.49-17.7-20.03,7.92-19.88,17.7-19.88,17.55,7.35,17.55,19.88ZM656.49,479.44c0,12.97-7.77,20.17-17.56,20.17s-17.7-7.35-17.7-20.17,8.06-20.03,17.7-20.03,17.56,7.06,17.56,20.03ZM848.37,471.52c.43-6.48,5.9-13.98,15.83-13.98,10.94,0,15.54,6.92,15.83,13.98h-31.66,0Z"/>
  <path class="cls-1" d="M154.52,557.98c-4.12,5.19-12.47,2.35-12.57-4.28l-1.45-96.87h65.14c11.8,0,18.38,13.62,11.04,22.87l-62.16,78.28Z"/>
  <path class="cls-2" d="M154.52,557.98c-4.12,5.19-12.47,2.35-12.57-4.28l-1.45-96.87h65.14c11.8,0,18.38,13.62,11.04,22.87l-62.16,78.28Z"/>
  <path class="cls-4" d="M128.03,402.11c4.12-5.19,12.47-2.34,12.57,4.28l.64,96.88h-64.32c-11.8,0-18.38-13.63-11.04-22.87l62.16-78.28Z"/>
</svg>